<?xml version="1.0" encoding="utf-8"?>
<!-- Generator: Adobe Illustrator 21.1.0, SVG Export Plug-In . SVG Version: 6.00 Build 0)  -->
<svg version="1.1" id="Layer_1" xmlns="http://www.w3.org/2000/svg" xmlns:xlink="http://www.w3.org/1999/xlink" x="0px" y="0px"
	 width="910.9px" height="138.1px" viewBox="0 0 910.9 138.1" style="enable-background:new 0 0 910.9 138.1;" xml:space="preserve"
	>
<style type="text/css">
	.st0{fill:#FFFFFF;}
</style>
<g>
	<path class="st0" d="M221.1,50.6c-0.9,0-1.7,0.8-1.7,1.7v35c0,0.9,0.8,1.7,1.7,1.7h44.7v8.2h-44.7c-5.5,0-9.9-4.4-9.9-9.9v-35
		c0-5.5,4.4-9.9,9.9-9.9h44.7v8.2H221.1z"/>
	<path class="st0" d="M286.7,48.1l8.2-5.7v54.7h-8.2V48.1z"/>
	<path class="st0" d="M368.3,42.4v8.2H345v46.5h-8.2V50.6h-23.3v-8.2H368.3z"/>
	<path class="st0" d="M443.2,42.4l-25.2,34.2v20.5h-8.2V76.6l-25.2-34.2h9.7l19.7,24.9l19.6-24.9H443.2z"/>
	<path class="st0" d="M541.3,42.4c5.5,0,9.9,4.4,9.9,9.9v35c0,5.5-4.4,9.9-9.9,9.9h-35c-5.5,0-9.9-4.4-9.9-9.9v-35
		c0-5.5,4.4-9.9,9.9-9.9H541.3z M541.3,88.9c0.9,0,1.7-0.8,1.7-1.7v-35c0-0.9-0.8-1.7-1.7-1.7h-35c-0.9,0-1.7,0.8-1.7,1.7v35
		c0,0.9,0.8,1.7,1.7,1.7H541.3z"/>
	<path class="st0" d="M622.8,42.4v8.2h-42v15h33.7v8.2h-33.7v23.3h-8.2V42.4H622.8z"/>
	<path class="st0" d="M674.9,42.4h54.7v9.7l-43.8,36.8h43.8v8.2h-54.7v-9.7l43.8-36.8h-43.8V42.4z"/>
	<path class="st0" d="M750.7,47.8l8.2-6.8v56.1h-8.2V47.8z"/>
	<path class="st0" d="M825,42.4c5.5,0,9.9,4.4,9.9,9.9v35c0,5.5-4.4,9.9-9.9,9.9h-35c-5.5,0-9.9-4.4-9.9-9.9v-35
		c0-5.5,4.4-9.9,9.9-9.9H825z M825,88.9c0.9,0,1.7-0.8,1.7-1.7v-35c0-0.9-0.8-1.7-1.7-1.7h-35c-0.9,0-1.7,0.8-1.7,1.7v35
		c0,0.9,0.8,1.7,1.7,1.7H825z"/>
	<path class="st0" d="M902.7,42.4h8.2v54.7h-9.7l-36.8-43.8v43.8h-8.2V42.4h9.7l36.8,43.8V42.4z"/>
</g>
<g>
	<polygon class="st0" points="156.6,98.9 137,118.5 97.9,118.5 137,79.3 	"/>
	<polygon class="st0" points="117.4,59.8 99.4,40.2 117.4,20.6 97.9,1.1 78.3,20.6 59.8,0 39.1,20.6 97.9,79.3 	"/>
	<polygon class="st0" points="19.6,40.2 78.3,98.9 39.1,138.1 0,138.1 39.1,98.9 0,59.8 	"/>
</g>
</svg>
