<?xml version="1.0" encoding="utf-8"?>
<!-- Generator: Adobe Illustrator 19.0.0, SVG Export Plug-In . SVG Version: 6.00 Build 0)  -->
<svg version="1.1" xmlns="http://www.w3.org/2000/svg" xmlns:xlink="http://www.w3.org/1999/xlink" x="0px" y="0px"
	 viewBox="0 0 256 256" style="enable-background:new 0 0 256 256;" xml:space="preserve">
<style type="text/css">
	.st0{display:none;}
	.st1{display:inline;}
	.st2{fill:#676A96;}
	.st3{fill:#4D517D;}
	.st4{fill:#191D49;}
	.st5{fill:#FAFBFB;}
	.st6{fill:#F5F5F5;}
	.st7{fill:#EEEEEE;}
</style>
<g id="Layer_1" class="st0">
	<g id="XMLID_5_" class="st1">
		<polygon id="XMLID_4_" class="st2" points="256,118.7 128.3,76.9 128.3,12 256,53.8 		"/>
		<polygon id="XMLID_3_" class="st3" points="196.8,244 128.3,223.1 128.3,98.5 196.8,119.4 		"/>
		<g id="XMLID_6_">
			<polygon id="XMLID_2_" class="st4" points="0,118.7 128.2,76.9 128.2,12 0,53.8 			"/>
			<polygon id="XMLID_1_" class="st4" points="59.7,244 128.2,223.1 128.2,98.5 59.7,119.4 			"/>
		</g>
	</g>
</g>
<g id="Layer_1_copy">
	<g id="XMLID_7_">
		<polygon id="XMLID_12_" class="st5" points="256,118.7 128.3,76.9 128.3,12 256,53.8 		"/>
		<polygon id="XMLID_11_" class="st6" points="196.8,244 128.3,223.1 128.3,98.5 196.8,119.4 		"/>
		<g id="XMLID_8_">
			<polygon id="XMLID_10_" class="st7" points="0,118.7 128.2,76.9 128.2,12 0,53.8 			"/>
			<polygon id="XMLID_9_" class="st7" points="59.7,244 128.2,223.1 128.2,98.5 59.7,119.4 			"/>
		</g>
	</g>
</g>
</svg>
