<?xml version="1.0" encoding="iso-8859-1"?>
<!-- Generator: Adobe Illustrator 19.0.0, SVG Export Plug-In . SVG Version: 6.00 Build 0)  -->
<svg version="1.1" id="Layer_1" xmlns="http://www.w3.org/2000/svg" xmlns:xlink="http://www.w3.org/1999/xlink" x="0px" y="0px"
	 viewBox="0 0 395.636 395.636" style="enable-background:new 0 0 395.636 395.636;" xml:space="preserve">
<g>
	<path style="fill:#FFFFFF;" d="M223.612,176.873l-71.693,140.218l-49.972-93.931l-32.129,60.574
		c-13.511-16.291-21.592-37.172-21.592-59.927c0-51.911,42.085-93.931,93.931-93.931
		C177.002,129.81,207.386,148.752,223.612,176.873z"/>
	<polygon style="fill:#FFFFFF;" points="383.871,93.931 243.588,93.931 243.588,6.206 383.871,6.206 359.176,50.101 	"/>
	<polygon style="fill:#FFFFFF;" points="151.919,317.156 115.006,389.43 13.576,389.43 102.012,223.16 	"/>
</g>
<polygon style="fill:#2EA2DB;" points="137.503,345.406 128.259,363.507 56.889,363.507 102.012,278.82 "/>
<g>
	<polygon style="fill:#FFFFFF;" points="371.523,389.43 243.588,137.826 115.006,389.43 	"/>
	<polygon style="fill:#FFFFFF;" points="371.523,389.43 287.483,223.806 265.18,248.501 242.941,223.806 221.285,247.919 
		199.693,223.806 115.006,389.43 	"/>
</g>
<polygon style="fill:#F16051;" points="157.608,363.507 205.253,269.511 221.285,287.483 242.941,262.723 265.18,288.065 
	281.277,269.511 328.857,363.507 "/>
<g>
	<path style="fill:#193651;" d="M394.99,100.137l-28.444-50.101L394.99,0H237.382v136.016l-14.869,28.444
		c-17.907-24.76-47.58-40.792-80.356-40.792c-55.014,0-100.137,45.123-100.137,100.137c0,22.885,7.434,43.248,20.428,59.992
		L9.891,383.354H0.646v12.283h383.289v-12.347h-8.663L249.729,136.016v-35.879H394.99z M249.729,12.347H373.98l-21.657,37.689
		l21.01,37.689H249.729V12.347z M55.014,223.806c0-48.808,38.917-87.79,87.143-87.79c30.901,0,58.117,16.679,74.214,40.792
		l-64.259,126.707l-50.101-93.349l-32.776,61.802C59.992,257.81,55.014,241.067,55.014,223.806z M24.113,383.289l78.481-147.135
		l42.667,81.002l-34.004,66.133H24.113z M361.632,383.289H124.897l75.442-148.364l20.428,22.885l21.657-24.76l22.238,25.341
		l20.428-23.467L361.632,383.289z M280.048,222.578l-14.869,16.679l-22.238-25.341l-21.657,24.76l-14.222-16.097l22.885-45.123
		c0.646,0,0.646-0.646,1.228-0.646c0,0,0-0.646-0.646-0.646l12.994-25.341L280.048,222.578z"/>
	<rect x="205.834" y="329.503" style="fill:#193651;" width="12.347" height="12.347"/>
	<rect x="234.279" y="329.503" style="fill:#193651;" width="12.347" height="12.347"/>
	<rect x="262.723" y="329.503" style="fill:#193651;" width="12.347" height="12.347"/>
</g>
<g>
</g>
<g>
</g>
<g>
</g>
<g>
</g>
<g>
</g>
<g>
</g>
<g>
</g>
<g>
</g>
<g>
</g>
<g>
</g>
<g>
</g>
<g>
</g>
<g>
</g>
<g>
</g>
<g>
</g>
</svg>
