<?xml version="1.0" encoding="UTF-8"?>
<svg width="242px" height="36px" viewBox="0 0 242 36" version="1.1" xmlns="http://www.w3.org/2000/svg" xmlns:xlink="http://www.w3.org/1999/xlink">
    <!-- Generator: Sketch 46.2 (44496) - http://www.bohemiancoding.com/sketch -->
    <title>CoZ_Logo</title>
    <desc>Created with Sketch.</desc>
    <defs></defs>
    <g id="Page-1" stroke="none" stroke-width="1" fill="none" fill-rule="evenodd">
        <g id="CoZ_ConceptOnePager_Velocihamster_001" transform="translate(-70.000000, -58.000000)" fill="#FFFFFF">
            <g id="Logo-+-main-navigation" transform="translate(70.000000, 58.000000)">
                <g id="CoZ_Logo">
                    <path d="M58.7156113,13.2502848 C58.465291,13.2502848 58.2559983,13.4584815 58.2559983,13.7086282 L58.2559983,23.2918897 C58.2559983,23.5420364 58.465291,23.7502331 58.7156113,23.7502331 L71,23.7502331 L71,26 L58.7156113,26 C57.2116124,26 56,24.7917343 56,23.2918897 L56,13.7086282 C56,12.2087836 57.2116124,11 58.7156113,11 L71,11 L71,13.2502848 L58.7156113,13.2502848 Z" id="Fill-1"></path>
                    <polygon id="Fill-3" points="76 12.5630287 78 11 78 26 76 26"></polygon>
                    <polygon id="Fill-5" points="98 11 98 13.2502848 91.6251424 13.2502848 91.6251424 26 89.3753755 26 89.3753755 13.2502848 83 13.2502848 83 11"></polygon>
                    <polygon id="Fill-7" points="117 11 110.549348 20.3755826 110.549348 26 108.451135 26 108.451135 20.3755826 102 11 104.467719 11 109.499758 17.8337189 114.512961 11"></polygon>
                    <path d="M144.29189,23.7502331 C144.541518,23.7502331 144.750233,23.5420364 144.750233,23.2913718 L144.750233,13.7081103 C144.750233,13.4579636 144.541518,13.2502848 144.29189,13.2502848 L134.70811,13.2502848 C134.458482,13.2502848 134.249767,13.4579636 134.249767,13.7081103 L134.249767,23.2913718 C134.249767,23.5420364 134.458482,23.7502331 134.70811,23.7502331 L144.29189,23.7502331 Z M144.29189,11 C145.791734,11 147,12.2082657 147,13.7081103 L147,23.2913718 C147,24.7917343 145.791734,26 144.29189,26 L134.70811,26 C133.208784,26 132,24.7917343 132,23.2913718 L132,13.7081103 C132,12.2082657 133.208784,11 134.70811,11 L144.29189,11 Z" id="Fill-9"></path>
                    <polygon id="Fill-11" points="165 11 165 13.2502848 153.291149 13.2502848 153.291149 17.3753755 162.708851 17.3753755 162.708851 19.6251424 153.291149 19.6251424 153.291149 26 151 26 151 11"></polygon>
                    <polygon id="Fill-13" points="178 11 193 11 193 13.6666782 180.999689 23.7502331 193 23.7502331 193 26 178 26 178 23.3333218 189.999793 13.2502848 178 13.2502848"></polygon>
                    <polygon id="Fill-15" points="199 12.8247954 201 11 201 26 199 26"></polygon>
                    <path d="M218.29189,23.7502331 C218.541518,23.7502331 218.750233,23.5420364 218.750233,23.2913718 L218.750233,13.7081103 C218.750233,13.4579636 218.541518,13.2502848 218.29189,13.2502848 L208.70811,13.2502848 C208.458482,13.2502848 208.249767,13.4579636 208.249767,13.7081103 L208.249767,23.2913718 C208.249767,23.5420364 208.458482,23.7502331 208.70811,23.7502331 L218.29189,23.7502331 Z M218.29189,11 C219.791734,11 221,12.2082657 221,13.7081103 L221,23.2913718 C221,24.7917343 219.791734,26 218.29189,26 L208.70811,26 C207.208784,26 206,24.7917343 206,23.2913718 L206,13.7081103 C206,12.2082657 207.208784,11 208.70811,11 L218.29189,11 Z" id="Fill-17"></path>
                    <g id="Text" transform="translate(227.000000, 11.000000)">
                        <polygon id="Fill-19" points="12.38285 0.1727 14.55535 0.1727 14.55535 14.6542 11.98035 14.6542 2.24585 3.0692 2.24585 14.6542 0.07335 14.6542 0.07335 0.1727 2.64785 0.1727 12.38285 11.7582"></polygon>
                    </g>
                    <g id="Icon">
                        <polygon id="Fill-22" points="41 25.7142857 35.8751649 30.8571429 25.625 30.8571429 35.8751649 20.5714286"></polygon>
                        <polygon id="Fill-24" points="30.75 15.4978809 26.038869 10.4243331 30.75 5.35029559 25.6252474 0.276747872 20.5 5.35029559 15.6542936 0 10.25 5.35029559 25.6252474 20.5714286"></polygon>
                        <polygon id="Fill-26" points="5.12487631 10.2857143 20.5 25.7141864 10.2497526 36 0 36 10.2497526 25.7141864 0 15.4283728"></polygon>
                    </g>
                </g>
            </g>
        </g>
    </g>
</svg>